<svg
  viewBox="0 0 24 24"
  xmlns="http://www.w3.org/2000/svg"
  aria-hidden="true"
  fill="currentColor"
>
  <path fill-rule="evenodd" clip-rule="evenodd" d="M15.591 3A3.828 3.828 0 0 1 22 5.828V11h.5a.5.5 0 0 1 .5.5v1a.5.5 0 0 1-.5.5H22v3a5.001 5.001 0 0 1-3 4.584v.916a.5.5 0 0 1-.5.5h-1a.5.5 0 0 1-.5-.5V21H7v.5a.5.5 0 0 1-.5.5h-1a.5.5 0 0 1-.5-.5v-.916A5.001 5.001 0 0 1 2 16v-3h-.5a.5.5 0 0 1-.5-.5v-1a.5.5 0 0 1 .5-.5H20V5.828a1.828 1.828 0 0 0-3-1.403v2.16a1 1 0 0 1-1.707.708l-2.586-2.586A1 1 0 0 1 13.414 3h2.178zM4 13h16v3a3 3 0 0 1-3 3H7a3 3 0 0 1-3-3v-3z"/>
</svg>
