<svg
  viewBox="0 0 24 24"
  xmlns="http://www.w3.org/2000/svg"
  aria-hidden="true"
  fill="currentColor"
>
  <path d="M9 14.5a.5.5 0 0 0 .5.5h1a.5.5 0 0 0 .5-.5v-2a.5.5 0 0 0-.5-.5h-1a.5.5 0 0 0-.5.5v2z"></path>
  <path fill-rule="evenodd" clip-rule="evenodd" d="M12.608 1.259A2 2 0 0 1 15 3.219V20.78a2 2 0 0 1-2.392 1.961l-8-1.6A2 2 0 0 1 3 19.181V4.82a2 2 0 0 1 1.608-1.961l8-1.6zM13 3.219l-8 1.6V19.18l8 1.6V3.22z"></path>
  <path d="M19 19h-1.5a.5.5 0 0 0-.5.5v1a.5.5 0 0 0 .5.5H20a1 1 0 0 0 1-1V4a1 1 0 0 0-1-1h-2.5a.5.5 0 0 0-.5.5v1a.5.5 0 0 0 .5.5H19v14z"></path>
</svg>
